<svg width="37" height="36" viewBox="0 0 37 36" fill="none" xmlns="http://www.w3.org/2000/svg">
<path d="M18.6543 13.0721C21.0722 13.2396 23.1543 15.2507 23.3222 17.6975L36.2177 4.82664L31.5498 0.201172L18.6543 13.0721Z" fill="#5890FE"/>
<path d="M18.4844 23.0611L31.4471 35.999L36.2493 31.2059L23.3202 18.3015C23.2194 20.8824 21.0366 22.9605 18.4844 23.0611Z" fill="#5890FE"/>
<path d="M0.318359 31.3402L4.98627 35.9992L17.9154 23.0948C15.4639 22.9272 13.4154 20.8826 13.2475 18.4693C13.2475 18.4358 0.318359 31.3402 0.318359 31.3402Z" fill="#5890FE"/>
<path d="M0.25 4.82658L13.2463 17.798C13.3806 15.2842 15.5299 13.1725 18.0821 13.072L4.98507 0L0.25 4.82658Z" fill="#5890FE"/>
</svg>
